<svg id="Layer_1" data-name="Layer 1" xmlns="http://www.w3.org/2000/svg" width="582.74" height="416.79" viewBox="0 0 582.74 416.79"><defs><style>.cls-1{fill:#1e2533;}.cls-2{fill:#e2e2e2;}.cls-3{fill:#404d6d;}.cls-4{fill:#bf9286;}.cls-5{fill:#dba897;}.cls-6{fill:#251b1b;}.cls-7{fill:#2d1c1c;}.cls-8{fill:#fff;}.cls-9{fill:#46ba7c;}.cls-10{fill:#e6e6e6;}.cls-11{fill:#eb6166;}.cls-12{fill:#6dc82a;}.cls-13{fill:#91dc5a;}.cls-14{fill:#895d3b;}.cls-15{fill:#9d9d9c;}.cls-16{fill:#01cbc8;}.cls-17{fill:#706f6f;}.cls-18{fill:#5d647f;}.cls-19{fill:#4bb9ec;}.cls-20{fill:#b22d34;}.cls-21{fill:#0158ba;}.cls-22{fill:#a82a31;}</style></defs><title>figure</title><path class="cls-1" d="M280.76,334.21c0,2.08-3.38,3.9-8.15,4.51a26,26,0,0,1-3.74.26,27.51,27.51,0,0,1-3.73-.26c-4.68-.61-8.15-2.43-8.15-4.51,0-2.6,5.29-4.69,11.8-4.69C275.47,329.52,280.76,331.6,280.76,334.21Z" transform="translate(-99 -57)"/><path class="cls-2" d="M274.17,444.22V338.71c1.7-.59,2.77-1.45,2.77-2.42,0-1.77-3.61-3.21-8.06-3.21s-8.07,1.44-8.07,3.21c0,1,1.11,1.86,2.86,2.45V444.22H235.3V450h67.15v-5.73Z" transform="translate(-99 -57)"/><path class="cls-3" d="M265.27,338.72c-4.68-.61-8.15-2.43-8.15-4.51v6.68l-21.69,6.76v96.49h28.28V347.65h1.57Z" transform="translate(-99 -57)"/><path class="cls-3" d="M280.72,340.89v-6.68c0,2.08-3.39,3.9-8.16,4.51v9h1.56v96.57h28.29V347.74Z" transform="translate(-99 -57)"/><circle class="cls-1" cx="169.92" cy="319.37" r="1.13"/><circle class="cls-1" cx="170.01" cy="301.67" r="1.13"/><circle class="cls-1" cx="169.92" cy="337.07" r="1.13"/><circle class="cls-1" cx="169.92" cy="354.77" r="1.13"/><circle class="cls-1" cx="169.92" cy="372.39" r="1.13"/><path class="cls-4" d="M261.76,323.71V335c0,1.56,3.21,2.86,7.11,2.86S276,336.55,276,335V323.71Z" transform="translate(-99 -57)"/><path class="cls-5" d="M358.5,212.39h-6.16V158.16h6.16a12.59,12.59,0,0,1,12.58,12.59V199.9A12.62,12.62,0,0,1,358.5,212.39Z" transform="translate(-99 -57)"/><path class="cls-5" d="M179.25,212.39h6.16V158.16h-6.16a12.59,12.59,0,0,0-12.58,12.59V199.9A12.56,12.56,0,0,0,179.25,212.39Z" transform="translate(-99 -57)"/><path class="cls-5" d="M179.68,73.92V255.69a17.71,17.71,0,0,0,3,10l41.73,51.54A29.1,29.1,0,0,0,247.1,328h43.55A29.38,29.38,0,0,0,313.3,317.2L355,265.66a17.71,17.71,0,0,0,3-10V73.92Z" transform="translate(-99 -57)"/><path class="cls-6" d="M328,178.38,275.47,190l49.63-20.65Z" transform="translate(-99 -57)"/><path class="cls-6" d="M212.65,169.36,262.28,190l-52.49-11.63Z" transform="translate(-99 -57)"/><circle class="cls-7" cx="202.76" cy="150.79" r="11.11"/><circle class="cls-8" cx="197.64" cy="145.67" r="3.12"/><circle class="cls-7" cx="136.99" cy="150.79" r="11.11"/><circle class="cls-8" cx="131.44" cy="145.24" r="2.69"/><path class="cls-6" d="M349.74,57.09a9.17,9.17,0,0,0-7.38,3,2.9,2.9,0,0,1-4.09.25l-.25-.25a8.89,8.89,0,0,0-12.53-1,9.35,9.35,0,0,0-1,1,2.8,2.8,0,0,1-3.95.31,2.91,2.91,0,0,1-.3-.31,9.16,9.16,0,0,0-6.77-3,8.92,8.92,0,0,0-6.77,3.12,2.79,2.79,0,0,1-3.94.3,2.91,2.91,0,0,1-.31-.3,8.89,8.89,0,0,0-12.53-1,8.59,8.59,0,0,0-1,1,2.8,2.8,0,0,1-3.95.3,2.13,2.13,0,0,1-.3-.3,9.27,9.27,0,0,0-6.86-3.12A8.92,8.92,0,0,0,271,60.21a2.79,2.79,0,0,1-3.94.3,2.91,2.91,0,0,1-.31-.3,8.89,8.89,0,0,0-12.53-1,8.59,8.59,0,0,0-1,1,2.8,2.8,0,0,1-3.95.3,2.13,2.13,0,0,1-.3-.3,8.9,8.9,0,0,0-12.54-1,9.44,9.44,0,0,0-1,1,2.8,2.8,0,0,1-3.95.3,2.83,2.83,0,0,1-.3-.3,8.9,8.9,0,0,0-12.54-1,9.35,9.35,0,0,0-1,1,2.8,2.8,0,0,1-3.95.3,2.13,2.13,0,0,1-.3-.3,8.9,8.9,0,0,0-12.54-1,9.44,9.44,0,0,0-1,1,2.89,2.89,0,0,1-4.09.24,1.88,1.88,0,0,1-.25-.24,8.82,8.82,0,0,0-7.38-3,9.1,9.1,0,0,0-8.32,9.2V187h8.93V157.21l8.94-8.94v-47.8a2.7,2.7,0,0,1,2.69-2.69H337.68a2.7,2.7,0,0,1,2.69,2.69v47.8l8.93,8.94V187h8.94V66.28C358,61.6,354.42,57.43,349.74,57.09Z" transform="translate(-99 -57)"/><rect class="cls-9" y="405.13" width="343.74" height="11.66"/><path class="cls-3" d="M325.92,403.27l-10.32,4.86a2.5,2.5,0,0,1-3.35-1.14l0-.08-24.64-52.14,14.83-7,24.64,52.15a2.4,2.4,0,0,1-.9,3.27Z" transform="translate(-99 -57)"/><path class="cls-5" d="M299.26,441.79l2.1-3.6-6.06-3.49-2.11,3.6a8.12,8.12,0,0,0-7.76,4.13,8.22,8.22,0,0,0,14.19,8.32l.09-.15A8.43,8.43,0,0,0,299.26,441.79Z" transform="translate(-99 -57)"/><rect class="cls-2" x="296.53" y="428.23" width="4.34" height="14.75" transform="translate(-326.6 423.16) rotate(-60.4)"/><path class="cls-3" d="M307.66,436.54l-14.28-8.17,19.33-34.07a2.5,2.5,0,0,1,3.38-1l.05,0L326,399a2.49,2.49,0,0,1,1,3.38l0,.05Z" transform="translate(-99 -57)"/><rect class="cls-1" x="297.44" y="423.01" width="6.07" height="18.91" transform="translate(-322.97 423.11) rotate(-60.4)"/><path class="cls-3" d="M211.6,403.16a2.4,2.4,0,0,1-.9-3.27l24.64-52.15,14.83,7-24.64,52.14,0,.08a2.5,2.5,0,0,1-3.35,1.14l-10.33-4.86Z" transform="translate(-99 -57)"/><path class="cls-5" d="M238,450.6l.09.15a8.22,8.22,0,0,0,14.19-8.32,8.13,8.13,0,0,0-7.77-4.13l-2.1-3.6-6.06,3.49,2.1,3.6A8.43,8.43,0,0,0,238,450.6Z" transform="translate(-99 -57)"/><rect class="cls-2" x="231.68" y="433.43" width="14.75" height="4.34" transform="translate(-282.97 117.93) rotate(-29.6)"/><path class="cls-3" d="M210.77,402.39l0-.05a2.49,2.49,0,0,1,1-3.38l9.86-5.63,0,0a2.48,2.48,0,0,1,3.37,1l19.34,34.07-14.28,8.17Z" transform="translate(-99 -57)"/><rect class="cls-1" x="227.82" y="429.43" width="18.91" height="6.07" transform="translate(-281.65 116.64) rotate(-29.6)"/><path class="cls-10" d="M325.8,466.11H212l-6.2-71.42a2.72,2.72,0,0,1,2.46-3h121a2.79,2.79,0,0,1,2.78,2.81c0,.06,0,.12,0,.18Z" transform="translate(-99 -57)"/><circle class="cls-8" cx="169.88" cy="371.91" r="13.18"/><path class="cls-8" d="M270.87,287c23.86,0,43.29-13,43.29-29.15H227.58C227.58,274,247,287,270.87,287Z" transform="translate(-99 -57)"/><path class="cls-11" d="M550,134.9H538l-3.17-12.82h18.33Z" transform="translate(-99 -57)"/><path class="cls-11" d="M535.54,125l.71,2.85h15.48l.72-2.85Z" transform="translate(-99 -57)"/><path class="cls-12" d="M544.16,101.35l-.59-.32-.52.32a7.83,7.83,0,0,0-4.47,6.74,7.55,7.55,0,0,0,3.83,6.34v-6.34h2.46v6.34a7.68,7.68,0,0,0,3.81-6.34A8.16,8.16,0,0,0,544.16,101.35Z" transform="translate(-99 -57)"/><path class="cls-12" d="M556.53,113v-.65h0L556,112a7.58,7.58,0,0,0-3.76-1.1,5.75,5.75,0,0,0-3,.78,6.48,6.48,0,0,0-3,5.31l4.47-2.66.65,1h0l.64,1-4.46,2.66a7,7,0,0,0,3.11.78,5.9,5.9,0,0,0,3-.78A6.79,6.79,0,0,0,556.53,113Z" transform="translate(-99 -57)"/><path class="cls-13" d="M535.86,115.47l.65-1,4.47,2.66a6.24,6.24,0,0,0-3-5.31,5.85,5.85,0,0,0-3-.78,7.29,7.29,0,0,0-3.75,1.1l-.52.26V113a6.42,6.42,0,0,0,3,6.09,5.85,5.85,0,0,0,3,.78,6.76,6.76,0,0,0,3.11-.78l-4.47-2.65Z" transform="translate(-99 -57)"/><path class="cls-14" d="M551.28,115.47l-.58-1-4.47,2.65-1.43.84v-9.78h-1.23l-1.16-.06v9.84l-1.43-.84-4.47-2.66-.65,1-.58,1,4.47,2.65,2.66,1.56v1.75h2.4v-1.75l2.65-1.56,4.47-2.65Z" transform="translate(-99 -57)"/><rect class="cls-11" x="434.6" y="64.69" width="20.79" height="4.28"/><rect class="cls-9" x="403.7" y="78.23" width="179.04" height="10.17"/><rect class="cls-15" x="424.75" y="88.46" width="8.49" height="10.23"/><rect class="cls-15" x="553.2" y="88.46" width="8.49" height="10.23"/><rect class="cls-16" x="658" y="88" width="5" height="47" transform="translate(-107.56 22.16) rotate(-6.81)"/><path class="cls-8" d="M659.37,92.87a1.83,1.83,0,0,0-.47,0v-.11l.13,0a.38.38,0,0,0,.17,0,.43.43,0,0,0,.08-.2,1.13,1.13,0,0,0,0-.32.66.66,0,0,0-.19-.4.44.44,0,0,0-.37-.11.43.43,0,0,0-.22.09.36.36,0,0,0-.12.18,2.52,2.52,0,0,0,0,.46,1.52,1.52,0,0,1,0,.48.45.45,0,0,1-.15.21.54.54,0,0,1-.28.11.74.74,0,0,1-.62-.21,1.16,1.16,0,0,1-.33-.72c0-.11,0-.22,0-.33a2.21,2.21,0,0,1,.06-.34,3.46,3.46,0,0,0,.52,0v.11h-.08l-.2,0a.35.35,0,0,0-.07.09.78.78,0,0,0-.08.23,1.31,1.31,0,0,0,0,.28.76.76,0,0,0,.21.47.49.49,0,0,0,.4.13.4.4,0,0,0,.22-.09.29.29,0,0,0,.12-.18,1.39,1.39,0,0,0,0-.4,1.79,1.79,0,0,1,0-.52.46.46,0,0,1,.16-.23.54.54,0,0,1,.32-.12.68.68,0,0,1,.56.17,1,1,0,0,1,.28.63,1.28,1.28,0,0,1,0,.34A2.41,2.41,0,0,1,659.37,92.87Z" transform="translate(-99 -57)"/><path class="cls-8" d="M657.23,94.49a3,3,0,0,0,.4-.2l1.43-.78.34-.19s0-.07,0-.15V93.1h.11c0,.18,0,.32,0,.45s0,.28.07.46h-.11l0-.16a.3.3,0,0,0,0-.11s0,0-.05,0h0l-.55.29-1.11.59,1.16.31a3.66,3.66,0,0,0,.68.15c.05,0,.07,0,.06-.11v-.21h.1c0,.15,0,.27,0,.37s0,.22,0,.37h-.1v-.06a.19.19,0,0,0,0-.12,1.24,1.24,0,0,0-.28-.09l-1.45-.4a4.32,4.32,0,0,0-.65-.15Z" transform="translate(-99 -57)"/><path class="cls-8" d="M658.5,98.11a.93.93,0,0,0-.29,0l-.35.06a3.66,3.66,0,0,1-.2-.48,3.86,3.86,0,0,1-.11-.53,1.42,1.42,0,0,1,.07-.72,1.13,1.13,0,0,1,.37-.51,1.26,1.26,0,0,1,.61-.23,1.21,1.21,0,0,1,.66.09,1.29,1.29,0,0,1,.5.43A1.75,1.75,0,0,1,660,97c0,.13,0,.25,0,.36s0,.26,0,.44l0,.14a3.76,3.76,0,0,0-.5,0v-.1l.11,0a.36.36,0,0,0,.19,0,1,1,0,0,0,.1-.28,1.64,1.64,0,0,0,0-.5,1,1,0,0,0-.35-.72,1.08,1.08,0,0,0-.8-.2,1.26,1.26,0,0,0-.74.35,1,1,0,0,0-.27.87,2,2,0,0,0,.19.57l.3,0,.24,0,0,0v-.38h.11c0,.26,0,.45,0,.57a1.46,1.46,0,0,0,0,.27h-.08Z" transform="translate(-99 -57)"/><path class="cls-8" d="M658.85,100.94l-.12-1-.28-.08a.93.93,0,0,0-.34-.07l-.06,0a.28.28,0,0,0,0,.11v.17h-.11a2.38,2.38,0,0,0,0-.36c0-.17,0-.31-.06-.43H658v0a.41.41,0,0,0,0,.15s0,0,.11.06l.55.18,1.09.34c.3.09.51.14.64.17v.12l-1.87,1.08-.23.14,0,.07a.46.46,0,0,0,0,.17l-.11,0,0-.42c0-.12,0-.29-.07-.49h.1l0,.16a.3.3,0,0,0,0,.11l0,0,.15-.07Zm0-.92.11.84.95-.54Z" transform="translate(-99 -57)"/><path class="cls-8" d="M659.52,102.39l.26.23a.31.31,0,0,1,.07.09.83.83,0,0,1,.06.21.66.66,0,0,1,0,.32.35.35,0,0,1-.16.21.92.92,0,0,1-.36.1l-.53.06a1,1,0,0,0-.31.06.14.14,0,0,0,0,.13l0,.12h-.1c0-.12,0-.22,0-.31s0-.17,0-.27c.22,0,.51,0,.88-.07a1.11,1.11,0,0,0,.32-.08.28.28,0,0,0,.13-.15.43.43,0,0,0,0-.23.47.47,0,0,0-.11-.27.36.36,0,0,0-.2-.12l-.34,0-.57.07c-.05,0-.09,0-.1,0a.19.19,0,0,0,0,.14l0,.12h-.1c0-.19,0-.34,0-.45s0-.26-.06-.41h.09l0,.12c0,.09,0,.13.07.14a5,5,0,0,0,.7-.06l.45-.06.07,0a.25.25,0,0,0,0-.13v-.12h.09c0,.09.05.18.08.25a2.67,2.67,0,0,0,.12.24s0,0,0,0,0,0,0,0h-.06Z" transform="translate(-99 -57)"/><path class="cls-8" d="M660.09,104.38l0,0-.28,0-.72.07-.37.06a.19.19,0,0,0-.08,0,.31.31,0,0,0,0,.13v.11l-.1,0c0-.17,0-.32,0-.45l-.06-.4h.1l0,.14c0,.06,0,.09,0,.1h.17l.59-.06.39-.06s.06,0,.07,0,0-.06,0-.12v-.12h.1a1.44,1.44,0,0,0,.09.29A2.15,2.15,0,0,0,660.09,104.38Zm.72-.23a.14.14,0,0,1,0,.14.15.15,0,0,1-.12.07.17.17,0,0,1-.14,0,.16.16,0,0,1-.07-.13.17.17,0,0,1,0-.14.19.19,0,0,1,.13-.07.18.18,0,0,1,.14,0A.15.15,0,0,1,660.81,104.15Z" transform="translate(-99 -57)"/><path class="cls-8" d="M659.9,105.42l.23.2a.28.28,0,0,1,.08.11.34.34,0,0,1,0,.17.52.52,0,0,1,0,.31.6.6,0,0,1-.22.24l.23.19a.27.27,0,0,1,.09.12.83.83,0,0,1,.06.21.53.53,0,0,1,0,.28.45.45,0,0,1-.16.2.7.7,0,0,1-.29.1l-.66.07a.92.92,0,0,0-.26,0,.18.18,0,0,0,0,.14v.12h-.1v-.08c0-.13,0-.22,0-.26s0-.16,0-.25l.72-.06a2.09,2.09,0,0,0,.46-.09.34.34,0,0,0,.16-.13.4.4,0,0,0,0-.22.45.45,0,0,0-.11-.24.31.31,0,0,0-.21-.11,5.38,5.38,0,0,0-.59.06l-.36,0a.07.07,0,0,0,0,0,.32.32,0,0,0,0,.15v.11h-.1a3.33,3.33,0,0,0,0-.44c0-.07,0-.21-.06-.42h.1v.11a.23.23,0,0,0,0,.13.23.23,0,0,0,.13,0l.58-.05a1.2,1.2,0,0,0,.36-.08A.29.29,0,0,0,660,106a.38.38,0,0,0,0-.22.37.37,0,0,0-.1-.22.31.31,0,0,0-.19-.12,1.53,1.53,0,0,0-.4,0l-.53.07c-.05,0-.09,0-.1,0a.23.23,0,0,0,0,.14v.12h-.1c0-.14,0-.27,0-.39a4.16,4.16,0,0,0-.06-.46h.09l0,.13c0,.07,0,.11.07.12a5.05,5.05,0,0,0,.64,0l.49-.07s.08,0,.09,0a.42.42,0,0,0,0-.14l0-.11h.1a1.78,1.78,0,0,0,.14.41l.06.12s0,0,0,0h-.06Z" transform="translate(-99 -57)"/><path class="cls-8" d="M660.06,108.06h.11l.12,0,.12.17a1.35,1.35,0,0,1,.13.21,1.05,1.05,0,0,1,.05.19.61.61,0,0,1-.06.39.41.41,0,0,1-.25.2l-.59.09-.49.08a.1.1,0,0,0,0,.09l0,.13-.11,0c0-.13,0-.22,0-.27s0-.15,0-.25l.15,0,.15,0-.31-.31-.06-.09a1,1,0,0,1,0-.12.51.51,0,0,1,.07-.34.34.34,0,0,1,.27-.15.49.49,0,0,1,.3,0,.43.43,0,0,1,.22.2,5.35,5.35,0,0,1,.24.68.52.52,0,0,0,.31-.13.43.43,0,0,0,.09-.34.83.83,0,0,0,0-.15.47.47,0,0,0-.07-.12l-.24-.06Zm-.16.91a1.93,1.93,0,0,0-.26-.57.33.33,0,0,0-.28-.09.24.24,0,0,0-.19.1.22.22,0,0,0,0,.19.46.46,0,0,0,.09.23,1,1,0,0,0,.24.2l.37,0Z" transform="translate(-99 -57)"/><path class="cls-8" d="M660.46,110.14l-.65.08a1.92,1.92,0,0,0-.33,0,.2.2,0,0,0-.13.22l0,.09a.27.27,0,0,0,.07.08l-.05.06-.21-.14a.69.69,0,0,1,0-.1.36.36,0,0,1,0-.1.48.48,0,0,1,0-.21.31.31,0,0,1,.11-.14.56.56,0,0,1,.21-.07l.32,0,.63-.07a2.51,2.51,0,0,0,0-.27h.07a2.75,2.75,0,0,0,.15.25l.52-.07a2.7,2.7,0,0,0,.16.26l0,0-.63.05c0,.13,0,.24,0,.33l0,.13h-.17v-.07l0-.32Z" transform="translate(-99 -57)"/><path class="cls-8" d="M660.91,111.23l0,0-.28,0-.72.07-.37.06a.12.12,0,0,0-.08,0,.25.25,0,0,0,0,.12v.12h-.1c0-.17,0-.31,0-.45l-.06-.4h.1l0,.15s0,.08,0,.09.07,0,.17,0l.58-.06.4-.06s.06,0,.07,0,0-.06,0-.12v-.12h.09l.09.29Zm.72-.22a.16.16,0,0,1,0,.14.19.19,0,0,1-.12.07.21.21,0,0,1-.14,0,.18.18,0,0,1-.08-.13.23.23,0,0,1,0-.14.24.24,0,0,1,.13-.07.18.18,0,0,1,.14,0A.16.16,0,0,1,661.63,111Z" transform="translate(-99 -57)"/><path class="cls-8" d="M660.14,111.81a.77.77,0,0,1,.43.06.66.66,0,0,1,.33.26.9.9,0,0,1,.16.43.8.8,0,0,1-.14.6.77.77,0,0,1-.54.28.87.87,0,0,1-.69-.2.88.88,0,0,1-.29-.57.73.73,0,0,1,.16-.58A.89.89,0,0,1,660.14,111.81Zm.16.3a1.21,1.21,0,0,0-.57.21.45.45,0,0,0-.2.44.43.43,0,0,0,.19.31.81.81,0,0,0,.49.07,1,1,0,0,0,.42-.13.61.61,0,0,0,.25-.22.39.39,0,0,0,0-.28.43.43,0,0,0-.09-.23.41.41,0,0,0-.2-.14A1,1,0,0,0,660.3,112.11Z" transform="translate(-99 -57)"/><path class="cls-8" d="M660.92,114.11l.26.22.07.09a.79.79,0,0,1,.06.22.67.67,0,0,1,0,.32.49.49,0,0,1-.16.21,1.13,1.13,0,0,1-.36.1l-.53,0a1,1,0,0,0-.31.06.14.14,0,0,0,0,.13l0,.12h-.1c0-.12,0-.22,0-.31s0-.17,0-.27c.22,0,.51,0,.88-.07a.86.86,0,0,0,.32-.08.28.28,0,0,0,.13-.15.49.49,0,0,0-.08-.49.36.36,0,0,0-.2-.12,1.61,1.61,0,0,0-.34,0l-.57.07c-.05,0-.09,0-.1,0a.2.2,0,0,0,0,.14l0,.12h-.1c0-.19,0-.34,0-.45s0-.25-.06-.4h.09l0,.12c0,.08,0,.13.07.14l.7-.07.45-.06a.15.15,0,0,0,.07,0,.3.3,0,0,0,0-.14v-.12H661c0,.09.05.18.08.25a1.87,1.87,0,0,0,.12.25,0,0,0,0,0,0,0s0,0,0,0h-.06Z" transform="translate(-99 -57)"/><path class="cls-8" d="M660.33,115.84l-.11,0a.32.32,0,0,0-.16,0,.38.38,0,0,0-.08.18.62.62,0,0,0,0,.27.43.43,0,0,0,.13.27.29.29,0,0,0,.23.08.27.27,0,0,0,.16-.08.59.59,0,0,0,.07-.26,3.26,3.26,0,0,1,.06-.45.34.34,0,0,1,.12-.18.37.37,0,0,1,.19-.08.5.5,0,0,1,.38.12.72.72,0,0,1,.2.44,1.3,1.3,0,0,1,0,.48l-.38,0,0-.11a.44.44,0,0,0,.19,0,.36.36,0,0,0,.1-.15.6.6,0,0,0,0-.23.33.33,0,0,0-.1-.23.27.27,0,0,0-.21-.07.22.22,0,0,0-.16.09,1.35,1.35,0,0,0-.08.42,1.43,1.43,0,0,1-.05.33.28.28,0,0,1-.11.13.41.41,0,0,1-.19.08.54.54,0,0,1-.41-.15.78.78,0,0,1-.23-.5,1.88,1.88,0,0,1,0-.47s0,0,0,0H660l.26,0h.08Z" transform="translate(-99 -57)"/><path class="cls-8" d="M662.13,121.21a1.5,1.5,0,0,1,0,.26.51.51,0,0,1-.07.4.46.46,0,0,1-.32.17.5.5,0,0,1-.39-.09.63.63,0,0,1-.19-.41,1.77,1.77,0,0,1,0-.22Zm-.82.22a.66.66,0,0,0,0,.13.36.36,0,0,0,.45.35.34.34,0,0,0,.32-.43,1.06,1.06,0,0,0,0-.14Z" transform="translate(-99 -57)"/><path class="cls-8" d="M661.78,122.2l.21,0v.11l-.13,0h0a.21.21,0,0,1,.17.17v0h-.12s0,0,0,0a.18.18,0,0,0-.18-.15h0l-.37,0v-.12Z" transform="translate(-99 -57)"/><path class="cls-8" d="M661.41,123.09l.08,0h0a.24.24,0,0,1-.12-.19.2.2,0,0,1,.17-.24c.16,0,.27.12.3.38h0a.13.13,0,0,0,.14-.17.33.33,0,0,0-.07-.17l.08,0a.44.44,0,0,1,.09.22.25.25,0,0,1-.25.29l-.26,0-.16,0Zm.34-.06c0-.14,0-.29-.18-.27s-.12.06-.11.13a.16.16,0,0,0,.13.15h.16Z" transform="translate(-99 -57)"/><path class="cls-8" d="M661.94,123.33l.18,0,0,.11-.11,0h0a.25.25,0,0,1,.15.22c0,.09,0,.24-.26.27l-.41,0v-.12l.39,0c.11,0,.2-.07.18-.18a.16.16,0,0,0-.14-.15h-.06l-.41.05,0-.12Z" transform="translate(-99 -57)"/><path class="cls-8" d="M661.66,124.14a.31.31,0,0,0,0,.17c0,.09.06.13.12.12s.09-.05.11-.14.09-.2.17-.21a.22.22,0,0,1,.23.21.47.47,0,0,1,0,.18l-.1,0a.28.28,0,0,0,0-.15c0-.07-.06-.11-.11-.1s-.08,0-.1.14-.08.19-.19.21-.21-.07-.23-.23a.41.41,0,0,1,0-.2Z" transform="translate(-99 -57)"/><path class="cls-8" d="M661.93,124.76a.22.22,0,0,0-.21.26.43.43,0,0,0,.06.19l-.09,0a.8.8,0,0,1-.07-.22.32.32,0,0,1,.31-.38.33.33,0,0,1,.4.28.29.29,0,0,1-.28.32H662Zm.13.35a.17.17,0,0,0,.18-.19.2.2,0,0,0-.22-.17Z" transform="translate(-99 -57)"/><path class="cls-8" d="M662.16,125.38l.21,0v.11l-.13,0h0a.21.21,0,0,1,.17.17v0h-.12s0,0,0,0a.18.18,0,0,0-.18-.15h0l-.37,0v-.12Z" transform="translate(-99 -57)"/><rect x="661.81" y="127.86" width="2" height="6" transform="translate(-109.85 22.57) rotate(-6.81)"/><rect class="cls-1" x="546" y="30" width="10" height="48"/><rect class="cls-17" x="541" y="36" width="5" height="42"/><polygon class="cls-18" points="540.75 40.36 535.75 40.09 533.01 77.73 538 78 540.75 40.36"/><polygon class="cls-19" points="535.43 44.27 530.46 43.79 526.03 77.53 531 78.01 535.43 44.27"/><rect class="cls-20" x="467.1" y="48.79" width="12.88" height="10.41" rx="5.2" ry="5.2"/><path d="M575.23,114.11h-.13a2,2,0,0,1-1.16-.45A1.88,1.88,0,0,1,573,112c-.08-2.06,4.45-4.44,4.6-4.35s.12.43.14.53c.08.4.12.8.16,1.2a7.3,7.3,0,0,1-.07,2.51,3.09,3.09,0,0,1-1.65,2A2.16,2.16,0,0,1,575.23,114.11Z" transform="translate(-99 -57)"/><path class="cls-8" d="M576.82,108.54c.3,1.5.64,3.48-.67,4.59a1.84,1.84,0,0,1-1.17.49,1.73,1.73,0,0,1-1.72-1.37c-.1-.84.67-1.43,1.23-1.92A21.19,21.19,0,0,1,576.82,108.54Z" transform="translate(-99 -57)"/><path d="M567.42,108.69c-.3.16-.89,3.21.92,4.32,1.61,1,3.83,0,3.85-.58C572.23,111.44,567.58,108.14,567.42,108.69Z" transform="translate(-99 -57)"/><path class="cls-8" d="M567.58,110.11s.38,2,1.26,2.34c1.4.6,2.78.15,2.67-.31S567.58,110.11,567.58,110.11Z" transform="translate(-99 -57)"/><path class="cls-21" d="M580.12,135.5H565a.88.88,0,0,1-.87-1l2-15.52a.88.88,0,0,1,.87-.77h11.16a.89.89,0,0,1,.88.77l2,15.52A.88.88,0,0,1,580.12,135.5Z" transform="translate(-99 -57)"/><path class="cls-20" d="M564.64,134.11l.15-1.16a.79.79,0,0,1,.44-.61c2.36-1.16,5.65-3.13,5.58-5s-2.58-3.12-4.19-3.71a.81.81,0,0,1-.52-.85l.43-3.32a.8.8,0,0,1,.79-.7h10.44a.8.8,0,0,1,.79.7l.43,3.32a.79.79,0,0,1-.51.85c-1.62.59-4.13,1.82-4.2,3.71s3.23,3.89,5.59,5a.78.78,0,0,1,.43.61l.15,1.16a.8.8,0,0,1-.79.9H565.43A.8.8,0,0,1,564.64,134.11Z" transform="translate(-99 -57)"/><path d="M574.57,123.24l-.83-.23c0-.05,0-.11,0-.16l.64-.38a.22.22,0,0,0,.07-.31.23.23,0,0,0-.31-.08l-.51.31a1.43,1.43,0,0,0-.55-.71,1.07,1.07,0,1,0-1.06,0,1.41,1.41,0,0,0-.54.71l-.52-.31a.23.23,0,0,0-.31.08.22.22,0,0,0,.08.31l.64.38a.86.86,0,0,0,0,.16l-.84.23a.23.23,0,0,0-.16.28.22.22,0,0,0,.22.16h.06l.75-.21a1.57,1.57,0,0,0,.08.29l-.44.46a.22.22,0,0,0,0,.32.22.22,0,0,0,.15.06.23.23,0,0,0,.17-.07l.33-.35a1.07,1.07,0,0,0,.86.48,1.05,1.05,0,0,0,.86-.48l.34.35a.2.2,0,0,0,.16.07.25.25,0,0,0,.16-.06.23.23,0,0,0,0-.32l-.44-.46a1.53,1.53,0,0,0,.07-.29l.75.21h.06a.22.22,0,0,0,.22-.16A.23.23,0,0,0,574.57,123.24Z" transform="translate(-99 -57)"/><rect class="cls-22" x="471.47" y="59.2" width="4.14" height="2.02"/></svg>