<svg xmlns="http://www.w3.org/2000/svg" viewBox="0 0 582.738 393.79"><defs>
<style>.a{fill:#e2e2e2;}.b{fill:#1f2329;}.c{fill:#30363f;}.d{fill:#60562b;}.e{fill:#bf9286;}.f{fill:#dba897;}.g{fill:#251b1b;}.h{fill:#2d1c1c;}.i{fill:#fff;}.j{fill:none;}.k{fill:#46ba7c;}.l{fill:#e6e6e6;}.m{fill:#eb6166;}.n{fill:#6dc82a;}.o{fill:#91dc5a;}.p{fill:#895d3b;}.q{fill:#bf3b13;}.r{fill:#5d647f;}.s{fill:#42a2cf;}.t{fill:#d17700;}.u{fill:#706f6f;}.v{fill:#4bb9ec;}.w{fill:#3c3c3b;}.x{fill:#ffcd00;}.y{fill:#9d9d9c;}</style>
</defs><g transform="translate(-1103.181 -442)"><g transform="translate(1103.181 442)"><path class="a" d="M238.87,429.6V320.8h-10.5V429.6H200v5.726h67.154V429.6Z" transform="translate(-62.749 -42.378)"/><path class="b" d="M248.673,318.685c0,2.082-3.384,3.9-8.156,4.512a25.186,25.186,0,0,1-3.731.26,26.054,26.054,0,0,1-3.731-.26c-4.685-.607-8.156-2.429-8.156-4.512,0-2.6,5.293-4.685,11.8-4.685C243.38,314,248.673,316.082,248.673,318.685Z" transform="translate(-66.045 -41.478)"/><ellipse class="a" cx="8.069" cy="3.21" rx="8.069" ry="3.21" transform="translate(162.76 276.079)"/><path class="c" d="M229.946,323.912c-4.685-.607-8.156-2.429-8.156-4.512v6.681L200.1,332.848v96.48h28.285v-96.48h1.562Z" transform="translate(-62.762 -42.193)"/><path class="c" d="M251.056,326.081V319.4c0,2.082-3.384,3.9-8.156,4.512v9.023h1.562V429.5h28.285V332.935Z" transform="translate(-68.427 -42.193)"/><ellipse class="d" cx="1.128" cy="1.128" rx="1.128" ry="1.128" transform="translate(169.701 318.246)"/><ellipse class="d" cx="1.128" cy="1.128" rx="1.128" ry="1.128" transform="translate(169.788 300.546)"/><ellipse class="d" cx="1.128" cy="1.128" rx="1.128" ry="1.128" transform="translate(169.701 335.945)"/><ellipse class="d" cx="1.128" cy="1.128" rx="1.128" ry="1.128" transform="translate(169.701 353.645)"/><ellipse class="d" cx="1.128" cy="1.128" rx="1.128" ry="1.128" transform="translate(169.701 371.258)"/><path class="e" d="M230.5,307.3v11.279c0,1.562,3.21,2.863,7.115,2.863s7.115-1.3,7.115-2.863V307.3Z" transform="translate(-66.786 -40.591)"/><path class="f" d="M339.96,170.727H333.8V116.5h6.16a12.59,12.59,0,0,1,12.581,12.581v29.152A12.628,12.628,0,0,1,339.96,170.727Z" transform="translate(-80.46 -15.335)"/><path class="f" d="M132.381,170.727h6.16V116.5h-6.16A12.59,12.59,0,0,0,119.8,129.081v29.152A12.572,12.572,0,0,0,132.381,170.727Z" transform="translate(-52.132 -15.335)"/><path class="f" d="M134.8,19.4V201.168a17.774,17.774,0,0,0,3.037,9.978l41.733,51.537a29.1,29.1,0,0,0,22.645,10.759H245.77a29.376,29.376,0,0,0,22.645-10.759l41.733-51.537a17.774,17.774,0,0,0,3.037-9.978V19.4Z" transform="translate(-54.118 -2.481)"/><path class="g" d="M297.691,138.423,245.2,150.05l49.628-20.65Z" transform="translate(-68.732 -17.042)"/><ellipse class="h" cx="11.106" cy="11.106" rx="11.106" ry="11.106" transform="translate(191.652 139.688)"/><circle class="i" cx="3.123" cy="3.123" r="3.123" transform="translate(194.515 142.551)"/><path class="g" d="M176.165,121.2l45.984,27.764L172,129.7Z" transform="translate(-59.042 -15.957)"/><ellipse class="h" cx="11.106" cy="11.106" rx="11.106" ry="11.106" transform="translate(125.886 139.688)"/><ellipse class="i" cx="2.69" cy="2.69" rx="2.69" ry="2.69" transform="translate(128.749 142.551)"/><path class="g" d="M304.882-.013a9.161,9.161,0,0,0-7.375,3.037,2.9,2.9,0,0,1-4.338,0,8.893,8.893,0,0,0-13.535,0,2.8,2.8,0,0,1-4.251,0,9.169,9.169,0,0,0-6.767-3.037,8.941,8.941,0,0,0-6.768,3.123,2.8,2.8,0,0,1-4.251,0,8.893,8.893,0,0,0-13.535,0,2.8,2.8,0,0,1-4.251,0,9.267,9.267,0,0,0-6.854-3.123,8.941,8.941,0,0,0-6.768,3.123,2.8,2.8,0,0,1-4.251,0,8.893,8.893,0,0,0-13.535,0,2.8,2.8,0,0,1-4.251,0,8.893,8.893,0,0,0-13.535,0,2.8,2.8,0,0,1-4.251,0,8.893,8.893,0,0,0-13.535,0,2.8,2.8,0,0,1-4.251,0,8.893,8.893,0,0,0-13.535,0,2.9,2.9,0,0,1-4.338,0A8.793,8.793,0,0,0,143.329.074,9.106,9.106,0,0,0,135,9.27v120.6h8.937v-29.76l8.937-8.937V43.368a2.7,2.7,0,0,1,2.69-2.69H292.821a2.7,2.7,0,0,1,2.69,2.69V91.174l8.937,8.937v29.76h8.937V9.184C313.124,4.5,309.567.334,304.882-.013Z" transform="translate(-54.144 0.1)"/><line class="j" x1="4.512" y2="15.617" transform="translate(128.141 335.251)"/><line class="j" x1="15.617" y1="5.293" transform="translate(122.415 340.804)"/><rect class="k" width="343.74" height="11.661" transform="translate(0 382.129)"/><path class="c" d="M177.148,392l10.585,4.165a2.566,2.566,0,0,0,3.3-1.475l20.91-53.706L196.583,335l-20.91,53.793A2.471,2.471,0,0,0,177.148,392Z" transform="translate(-59.505 -44.258)"/><path class="f" d="M144.516,422.09l3.21-2.69,4.512,5.379-3.21,2.69a8.278,8.278,0,1,1-4.512-5.379Z" transform="translate(-53.856 -55.43)"/><rect class="a" width="14.75" height="4.338" transform="matrix(-0.639, -0.769, 0.769, -0.639, 99.902, 373.105)"/><path class="c" d="M150.6,408l10.5,12.667L191.2,395.683a2.581,2.581,0,0,0,.347-3.557l-7.288-8.763a2.581,2.581,0,0,0-3.557-.347Z" transform="translate(-56.209 -50.54)"/><rect class="b" width="18.914" height="6.073" transform="matrix(-0.639, -0.769, 0.769, -0.639, 103.392, 372.959)"/><path class="c" d="M298.549,390.528l-10.325,4.859a2.5,2.5,0,0,1-3.384-1.215L260.2,342.028,275.036,335l24.641,52.144A2.4,2.4,0,0,1,298.549,390.528Z" transform="translate(-70.717 -44.258)"/><path class="f" d="M332.109,422.663l-3.037-2.863-4.772,5.119,3.037,2.863a8.125,8.125,0,0,0,2.256,8.5,8.227,8.227,0,1,0,11.192-12.06A8.421,8.421,0,0,0,332.109,422.663Z" transform="translate(-79.202 -55.483)"/><rect class="a" width="14.75" height="4.338" transform="matrix(0.678, -0.735, 0.735, 0.678, 240.156, 370.276)"/><path class="c" d="M323.37,408.148l-11.192,12.06-28.805-26.549a2.491,2.491,0,0,1-.174-3.557l7.722-8.329a2.491,2.491,0,0,1,3.557-.174Z" transform="translate(-73.674 -50.338)"/><rect class="b" width="18.914" height="6.073" transform="matrix(0.678, -0.735, 0.735, 0.678, 235.454, 368.776)"/><path class="l" d="M276.95,432.5H187.758L182.9,376.543a2.142,2.142,0,0,1,2.169-2.343H279.64a2.188,2.188,0,0,1,2.169,2.343Z" transform="translate(-60.484 -49.447)"/><circle class="i" cx="10.325" cy="10.325" r="10.325" transform="translate(161.545 343.581)"/><path class="i" d="M233.295,260.552c23.86,0,43.295-13.014,43.295-29.152H190C190,247.538,209.435,260.552,233.295,260.552Z" transform="translate(-61.425 -30.544)"/></g><g transform="translate(1506.881 468.213)"><path class="m" d="M64.757,72.825H52.774L49.6,60H67.931Z" transform="translate(-17.472 -21.135)"/><path class="m" d="M50.7,64.5l.713,2.85H66.894l.713-2.85Z" transform="translate(-17.859 -22.72)"/><path class="n" d="M60.971,27.824l-.583-.324-.518.324A7.807,7.807,0,0,0,55.4,34.56a7.549,7.549,0,0,0,3.822,6.348V34.56h2.461v6.348A7.718,7.718,0,0,0,65.5,34.56,8.172,8.172,0,0,0,60.971,27.824Z" transform="translate(-19.515 -9.687)"/><path class="n" d="M77.5,44.873v-.648h0l-.583-.324a7.59,7.59,0,0,0-3.757-1.1,5.844,5.844,0,0,0-2.98.777,6.509,6.509,0,0,0-2.98,5.312l4.469-2.656.648,1.036h0l.648,1.036L68.5,50.962a6.9,6.9,0,0,0,3.109.777,5.844,5.844,0,0,0,2.98-.777A6.772,6.772,0,0,0,77.5,44.873Z" transform="translate(-23.671 -15.076)"/><path class="o" d="M48.412,47.369l.648-1.036,4.469,2.656a6.267,6.267,0,0,0-2.98-5.312,5.844,5.844,0,0,0-2.98-.777A7.228,7.228,0,0,0,43.813,44l-.518.259v.648A6.422,6.422,0,0,0,46.274,51a5.844,5.844,0,0,0,2.98.777A6.7,6.7,0,0,0,52.363,51l-4.469-2.656Z" transform="translate(-15.247 -15.112)"/><path class="p" d="M66.3,45.784l-.583-1.036L61.247,47.4l-1.425.842V38.465H58.591L57.425,38.4v9.846L56,47.4l-4.469-2.656-.648,1.036L50.3,46.821l4.469,2.656,2.656,1.555V52.78h2.4V51.031l2.656-1.555,4.469-2.656Z" transform="translate(-17.718 -13.526)"/><rect class="m" width="20.793" height="4.275" transform="translate(30.898 38.476)"/><path class="q" d="M229.6,16.3H222.09a1.466,1.466,0,0,0-1.49,1.49V58.469h10.558V17.79A1.61,1.61,0,0,0,229.6,16.3Z" transform="translate(-77.706 -5.742)"/><path class="r" d="M179.773,7.092l-2.98-.194a1.523,1.523,0,0,0-1.619,1.425L172,54.9l6.024.389L181.2,8.711A1.523,1.523,0,0,0,179.773,7.092Z" transform="translate(-60.587 -2.428)"/><path class="s" d="M215.734,7H212.69a1.466,1.466,0,0,0-1.49,1.49v46.7h6.024V8.49A1.466,1.466,0,0,0,215.734,7Z" transform="translate(-74.395 -2.466)"/><path class="r" d="M242.257,11.9l-4.534.259a1.523,1.523,0,0,0-1.425,1.619l2.721,43.594,7.514-.453-2.721-43.658A1.419,1.419,0,0,0,242.257,11.9Z" transform="translate(-83.234 -4.189)"/><path class="t" d="M204,0H196.49A1.466,1.466,0,0,0,195,1.49V52.727h10.558V1.49A1.564,1.564,0,0,0,204,0Z" transform="translate(-68.689)"/><path class="u" d="M190.169,16.3h-2.98a1.466,1.466,0,0,0-1.49,1.49V58.469h6.024V17.79A1.564,1.564,0,0,0,190.169,16.3Z" transform="translate(-65.413 -5.742)"/><path class="v" d="M166.7,12.232l-5.182-.842a1.426,1.426,0,0,0-1.555,1.3L153.1,55.826l7.838,1.231,6.8-43.14A1.4,1.4,0,0,0,166.7,12.232Z" transform="translate(-53.929 -4.006)"/><rect class="w" width="4.081" height="33.035" transform="translate(121.259 15.546)"/><rect class="x" width="10.429" height="3.044" transform="translate(142.959 15.093)"/><rect class="x" width="10.558" height="3.044" transform="translate(142.829 43.658)"/><rect class="k" width="179.038" height="10.17" transform="translate(0 52.014)"/><rect class="y" width="8.486" height="10.234" transform="translate(21.052 62.249)"/><rect class="y" width="8.486" height="10.234" transform="translate(149.501 62.249)"/></g></g></svg>