<?xml version="1.0" standalone="no"?>
<!DOCTYPE svg PUBLIC "-//W3C//DTD SVG 20010904//EN"
 "http://www.w3.org/TR/2001/REC-SVG-20010904/DTD/svg10.dtd">
<svg version="1.0" xmlns="http://www.w3.org/2000/svg"
 width="1659.000000pt" height="1659.000000pt" viewBox="0 0 1659.000000 1659.000000"
 preserveAspectRatio="xMidYMid meet">

<g transform="translate(0.000000,1659.000000) scale(0.100000,-0.100000)"
fill="#000000" stroke="none">
<path d="M10762 16574 c-73 -19 -102 -36 -173 -99 -54 -49 -67 -55 -105 -55
-37 0 -50 7 -100 50 -32 28 -82 62 -113 78 -50 24 -67 27 -156 27 -88 0 -107
-3 -157 -27 -32 -15 -79 -47 -106 -72 -89 -83 -133 -83 -224 1 -88 81 -131 97
-258 98 -99 0 -109 -2 -165 -32 -33 -17 -76 -48 -95 -68 -44 -47 -92 -68 -132
-60 -17 4 -55 30 -85 57 -31 28 -81 62 -112 77 -49 23 -69 26 -156 26 -87 0
-107 -3 -155 -26 -31 -14 -78 -47 -105 -73 -87 -83 -123 -83 -213 -4 -31 28
-82 62 -112 77 -48 23 -68 26 -155 26 -87 0 -107 -3 -155 -26 -30 -14 -80 -49
-111 -77 -86 -79 -121 -78 -213 5 -28 25 -76 58 -106 72 -48 23 -68 26 -155
26 -88 0 -107 -3 -157 -27 -32 -15 -79 -47 -106 -72 -54 -51 -95 -70 -130 -61
-13 3 -53 31 -89 62 -99 83 -138 98 -258 98 -87 0 -107 -3 -156 -26 -31 -15
-81 -49 -112 -77 -87 -79 -128 -79 -214 2 -26 26 -73 59 -103 74 -49 24 -66
27 -160 27 -95 0 -110 -3 -158 -28 -29 -15 -77 -49 -106 -76 -86 -78 -131 -77
-218 5 -27 25 -74 57 -106 72 -49 23 -70 27 -152 27 -88 0 -101 -3 -162 -33
-104 -51 -181 -149 -208 -264 -6 -28 -10 -943 -10 -2580 l0 -2538 190 0 190 0
0 623 0 622 185 185 185 185 0 995 c0 668 4 1008 11 1033 7 26 21 44 42 57 32
20 77 20 2917 20 2287 0 2890 -3 2910 -13 14 -7 33 -28 42 -47 17 -33 18 -103
18 -1040 l0 -1005 185 -185 185 -185 0 -622 0 -623 190 0 190 0 0 606 0 607
66 -7 c215 -22 393 -176 449 -387 21 -77 22 -1398 1 -1474 -49 -185 -204 -336
-387 -380 -35 -8 -81 -15 -101 -15 l-37 0 -3 -972 -3 -973 -27 -80 c-16 -44
-43 -106 -60 -138 -38 -67 -1764 -2202 -1853 -2293 -165 -166 -375 -280 -623
-335 -95 -22 -114 -22 -1045 -26 -593 -3 -999 -1 -1085 6 -177 13 -304 46
-447 115 -139 67 -216 118 -312 209 -43 41 -451 536 -966 1171 -962 1187 -955
1178 -994 1343 -17 73 -18 141 -18 1026 l0 947 -37 0 c-95 0 -217 44 -305 111
-67 50 -147 163 -176 248 -22 65 -22 74 -25 737 -3 730 -1 759 53 869 80 163
244 278 417 292 l68 6 0 938 c0 517 -3 939 -7 939 -14 0 -303 -178 -465 -286
-1460 -978 -2544 -2436 -3053 -4106 -319 -1046 -409 -2150 -265 -3246 177
-1340 717 -2619 1559 -3692 322 -410 737 -835 1141 -1170 649 -537 1382 -961
2175 -1261 99 -37 181 -66 182 -65 2 1 -38 468 -87 1036 -50 569 -90 1052 -90
1073 0 31 7 46 34 73 l34 34 1176 0 1176 0 0 914 0 915 33 3 32 3 0 184 0 185
-35 8 c-120 28 -150 47 -150 96 0 16 8 37 19 46 18 16 19 16 25 -8 8 -32 57
-62 136 -82 82 -21 282 -15 350 10 50 19 100 61 100 85 1 23 40 -26 40 -50 0
-38 -43 -71 -116 -88 l-69 -17 -3 -187 -2 -187 35 0 35 0 0 -915 0 -915 1174
0 1174 0 30 -28 c18 -17 33 -43 36 -63 3 -19 -36 -512 -87 -1095 l-92 -1062
135 48 c1454 512 2742 1481 3650 2744 726 1010 1198 2200 1360 3428 127 967
73 1937 -161 2871 -447 1782 -1524 3342 -3037 4399 -160 112 -423 279 -574
365 l-98 55 0 962 c0 1047 1 1026 -56 1124 -35 60 -109 128 -174 160 -49 24
-66 27 -155 27 -87 0 -107 -3 -155 -26 -30 -15 -81 -49 -113 -78 -51 -45 -63
-51 -102 -51 -39 0 -51 6 -105 54 -115 103 -229 135 -358 100z"/>
<path d="M5901 11888 c-26 -69 -114 -359 -110 -362 5 -5 2103 -472 2164 -482
l30 -5 -25 14 c-14 8 -464 197 -1000 420 -536 223 -992 413 -1013 422 -36 15
-38 15 -46 -7z"/>
<path d="M9575 11485 c-561 -234 -1026 -427 -1034 -430 -71 -28 146 18 1085
226 599 132 1090 242 1092 244 3 3 -117 385 -121 385 -1 0 -461 -192 -1022
-425z"/>
<path d="M6761 10754 c-128 -34 -236 -126 -298 -251 -33 -67 -38 -85 -41 -170
-5 -117 14 -199 67 -281 218 -336 723 -267 841 116 49 158 10 327 -106 451
-116 126 -299 179 -463 135z m-74 -114 c8 0 28 -13 44 -29 59 -60 26 -171 -57
-187 -93 -17 -164 80 -120 164 18 35 75 65 104 56 8 -2 20 -4 29 -4z"/>
<path d="M9513 10756 c-132 -32 -247 -126 -310 -254 -33 -66 -38 -84 -41 -169
-7 -160 42 -283 153 -381 300 -264 775 -51 775 348 -1 126 -40 226 -126 319
-114 124 -288 176 -451 137z m-41 -128 c59 -22 84 -106 52 -174 -42 -87 -187
-86 -229 2 -38 80 -2 159 84 184 27 8 48 6 93 -12z"/>
<path d="M8222 4048 c-7 -7 -12 -21 -12 -33 0 -28 19 -45 50 -45 31 0 50 17
50 45 0 28 -19 45 -50 45 -14 0 -31 -5 -38 -12z"/>
<path d="M8228 3319 c-21 -12 -24 -59 -6 -77 7 -7 21 -12 33 -12 12 0 26 5 33
12 19 19 15 66 -7 78 -24 12 -31 12 -53 -1z"/>
</g>
</svg>
